<svg xmlns="http://www.w3.org/2000/svg" width="512" height="512" viewBox="0 0 512 512" version="1.1">
<defs>
      <linearGradient id="Gradient3" x1="0" x2="1" y1="0" y2="1">
      <stop offset="0%" stop-color="#7fe47e" />
      <stop offset="75%" stop-color="#7ee4c9" />
      <stop offset="100%" stop-color="#50cad8" />
    </linearGradient>
<style>
  path {
    fill: #3e7fdf
  }
  </style>
</defs>
  <polygon points="74.98,74.98 322.26,8.72 503.28,189.74 437.02,437.02 189.74,503.28 8.72,322.26"
  style="fill:url(#Gradient3);" />
<path stroke="black" stroke-width="20" d="M 111.178 25.444 C 96.931 28.148, 77.186 36.146, 57 47.389 C 54.525 48.767, 49.575 51.208, 46 52.813 C 34.490 57.978, 25.398 66.002, 25.784 70.655 C 25.886 71.890, 25.526 73.175, 24.985 73.509 C 23.510 74.421, 23.799 78.124, 25.443 79.390 C 28.188 81.503, 33.393 148.385, 39.449 259.371 C 40.791 283.961, 42.284 303.684, 42.847 304.247 C 45.304 306.704, 60.584 300.399, 69.687 293.171 L 74.874 289.053 82.716 289.658 C 143.666 294.358, 219.241 233.639, 219.207 180 C 219.181 140.705, 181.305 131.844, 120.008 156.793 C 119.187 157.127, 119.920 155.623, 121.638 153.450 C 175.314 85.554, 169.498 14.373, 111.178 25.444 M 84.123 48.486 C 71.980 51.229, 61.885 56.788, 62.463 60.414 C 64.069 70.490, 72 172.649, 72 183.261 C 72 191.141, 98.564 153.634, 110.075 129.500 C 135.329 76.553, 123.490 39.595, 84.123 48.486 M 398.500 115.413 C 384.750 118.912, 355.500 126.622, 333.500 132.545 C 311.500 138.468, 291.250 143.739, 288.500 144.259 C 285.750 144.779, 280.575 146.259, 277 147.548 C 273.425 148.836, 266.450 151.035, 261.500 152.432 C 249.765 155.746, 239.585 160.943, 232.554 167.210 C 223.323 175.438, 225.977 179.112, 238.276 175.131 C 241.699 174.023, 246.825 172.450, 249.667 171.636 L 254.834 170.157 256.386 177.329 C 272.915 253.718, 270.944 362.444, 252.364 399.250 C 249.646 404.634, 250.005 404.451, 245.718 402.643 C 231.823 396.785, 222.775 373.659, 215.925 326.500 C 213.022 306.508, 212.272 306.073, 195.679 314.754 C 176.323 324.881, 175.732 327.907, 184.552 371.767 C 196.229 429.837, 223.457 443.365, 265.298 411.883 C 303.828 382.894, 314.487 288.541, 293.415 163 L 292.828 159.500 345.664 145.676 C 413.530 127.919, 413.227 128.028, 424.715 117.345 C 435.089 107.698, 430.224 107.339, 398.500 115.413 M 132.472 167.466 C 116.993 171.019, 101.332 178.866, 91.410 188.039 C 87.511 191.644, 81.722 196.318, 78.546 198.426 L 72.771 202.259 73.352 207.879 C 73.672 210.971, 74.483 224.820, 75.156 238.656 L 76.378 263.813 79.497 263.307 C 81.212 263.028, 87.314 263.565, 93.058 264.499 C 132.468 270.907, 153.356 263.431, 170.830 236.663 C 198.780 193.847, 178.322 156.941, 132.472 167.466 M 407.500 220.435 C 374.101 227.073, 341.928 252.763, 336.943 276.775 C 331.257 304.165, 348.916 325.467, 405 358.874 C 446.557 383.627, 457.539 396.735, 457.473 421.500 C 457.419 441.891, 447.140 460.089, 434.097 462.886 C 408.802 468.311, 393.491 456.081, 372.897 414 C 367.380 402.725, 362.306 392.375, 361.623 391 C 357.623 382.952, 324.797 400.198, 326.314 409.550 C 328.895 425.450, 355.924 469.563, 368.651 478.645 C 410.132 508.245, 493.303 457.459, 493.351 402.500 C 493.375 375.560, 481.819 362.295, 433 333.225 C 380.288 301.836, 363.301 277.864, 375.261 251.741 C 385.409 229.576, 441.488 250.334, 448.228 278.750 C 450.148 286.843, 460.643 284.730, 475.927 273.173 C 503.128 252.604, 450.342 211.920, 407.500 220.435" fill-rule="evenodd"/>
<path d="M 111.178 25.444 C 96.931 28.148, 77.186 36.146, 57 47.389 C 54.525 48.767, 49.575 51.208, 46 52.813 C 34.490 57.978, 25.398 66.002, 25.784 70.655 C 25.886 71.890, 25.526 73.175, 24.985 73.509 C 23.510 74.421, 23.799 78.124, 25.443 79.390 C 28.188 81.503, 33.393 148.385, 39.449 259.371 C 40.791 283.961, 42.284 303.684, 42.847 304.247 C 45.304 306.704, 60.584 300.399, 69.687 293.171 L 74.874 289.053 82.716 289.658 C 143.666 294.358, 219.241 233.639, 219.207 180 C 219.181 140.705, 181.305 131.844, 120.008 156.793 C 119.187 157.127, 119.920 155.623, 121.638 153.450 C 175.314 85.554, 169.498 14.373, 111.178 25.444 M 84.123 48.486 C 71.980 51.229, 61.885 56.788, 62.463 60.414 C 64.069 70.490, 72 172.649, 72 183.261 C 72 191.141, 98.564 153.634, 110.075 129.500 C 135.329 76.553, 123.490 39.595, 84.123 48.486 M 398.500 115.413 C 384.750 118.912, 355.500 126.622, 333.500 132.545 C 311.500 138.468, 291.250 143.739, 288.500 144.259 C 285.750 144.779, 280.575 146.259, 277 147.548 C 273.425 148.836, 266.450 151.035, 261.500 152.432 C 249.765 155.746, 239.585 160.943, 232.554 167.210 C 223.323 175.438, 225.977 179.112, 238.276 175.131 C 241.699 174.023, 246.825 172.450, 249.667 171.636 L 254.834 170.157 256.386 177.329 C 272.915 253.718, 270.944 362.444, 252.364 399.250 C 249.646 404.634, 250.005 404.451, 245.718 402.643 C 231.823 396.785, 222.775 373.659, 215.925 326.500 C 213.022 306.508, 212.272 306.073, 195.679 314.754 C 176.323 324.881, 175.732 327.907, 184.552 371.767 C 196.229 429.837, 223.457 443.365, 265.298 411.883 C 303.828 382.894, 314.487 288.541, 293.415 163 L 292.828 159.500 345.664 145.676 C 413.530 127.919, 413.227 128.028, 424.715 117.345 C 435.089 107.698, 430.224 107.339, 398.500 115.413 M 132.472 167.466 C 116.993 171.019, 101.332 178.866, 91.410 188.039 C 87.511 191.644, 81.722 196.318, 78.546 198.426 L 72.771 202.259 73.352 207.879 C 73.672 210.971, 74.483 224.820, 75.156 238.656 L 76.378 263.813 79.497 263.307 C 81.212 263.028, 87.314 263.565, 93.058 264.499 C 132.468 270.907, 153.356 263.431, 170.830 236.663 C 198.780 193.847, 178.322 156.941, 132.472 167.466 M 407.500 220.435 C 374.101 227.073, 341.928 252.763, 336.943 276.775 C 331.257 304.165, 348.916 325.467, 405 358.874 C 446.557 383.627, 457.539 396.735, 457.473 421.500 C 457.419 441.891, 447.140 460.089, 434.097 462.886 C 408.802 468.311, 393.491 456.081, 372.897 414 C 367.380 402.725, 362.306 392.375, 361.623 391 C 357.623 382.952, 324.797 400.198, 326.314 409.550 C 328.895 425.450, 355.924 469.563, 368.651 478.645 C 410.132 508.245, 493.303 457.459, 493.351 402.500 C 493.375 375.560, 481.819 362.295, 433 333.225 C 380.288 301.836, 363.301 277.864, 375.261 251.741 C 385.409 229.576, 441.488 250.334, 448.228 278.750 C 450.148 286.843, 460.643 284.730, 475.927 273.173 C 503.128 252.604, 450.342 211.920, 407.500 220.435" stroke="none" fill-rule="evenodd"/></svg>